# xmcd
#
# Track frame offsets:
# 150
# 12520
# 33305
# 51345
# 61987
# 87737
# 110095
# 133440
# 148765
# 161040
# 171527
# 184312
# 196297
# 213102
# 223527
#
# Disc length: 3200 seconds
#
#
# Revision: 0
# Processed by: cddbd v1.5.1PL2 Copyright (c) Steve Scherf et al.
# Submitted via: FreeRIP 2.945 
#
DISCID=f20c7e0f
DTITLE=Les Choeurs de l'Armée Rouge - Kalinka
DYEAR=1900
DGENRE=Chorus
TTITLE0=plaine ma plaine
TTITLE1=kalinka
TTITLE2=les yeux noirs
TTITLE3=le temps du muguet
TTITLE4=le rocher sur la volga
TTITLE5=chant des bateliers
TTITLE6=les rossignols de russie
TTITLE7=en route
TTITLE8=allons
TTITLE9=le chants des partisans
TTITLE10=les braves cosaques
TTITLE11=la chanson de l'armée soviétique
TTITLE12=variague
TTITLE13=la chanson patriotique
TTITLE14=hymne de l'u.r.s.s.
EXTD=
EXTT0=
EXTT1=
EXTT2=
EXTT3=
EXTT4=
EXTT5=
EXTT6=
EXTT7=
EXTT8=
EXTT9=
EXTT10=
EXTT11=
EXTT12=
EXTT13=
EXTT14=
PLAYORDER=
